HIERARCHY
ROOT Character1_Hips
{
  OFFSET -29.352 95.9456 63.9989
  CHANNELS 6 Xposition Yposition Zposition Zrotation Xrotation Yrotation
  JOINT Character1_Spine
  {
    OFFSET 0 8.754 -1.339
    CHANNELS 3 Zrotation Xrotation Yrotation
    JOINT Character1_Spine1
    {
      OFFSET 0 10.855 -0.645
      CHANNELS 3 Zrotation Xrotation Yrotation
      JOINT Character1_LeftShoulder
      {
        OFFSET 1.467 27.745 1.178
        CHANNELS 3 Zrotation Xrotation Yrotation
        JOINT Character1_LeftArm
        {
          OFFSET 18.486 -1.858 0.275
          CHANNELS 3 Zrotation Xrotation Yrotation
          JOINT Character1_LeftForeArm
          {
            OFFSET 31.798 2.36 2.921
            CHANNELS 3 Zrotation Xrotation Yrotation
            JOINT Character1_LeftHand
            {
              OFFSET 29.001 1.642 2.112
              CHANNELS 3 Zrotation Xrotation Yrotation
              End Site
              {
                OFFSET 0.269758 0.141128 0.89614
              }
            }
            JOINT L_Radius_RIGMESH
            {
              OFFSET 0.592911 0.209926 -0.435177
              CHANNELS 3 Zrotation Xrotation Yrotation
              End Site
              {
                OFFSET 0 0 0
              }
            }
          }
          JOINT L_Humerus_RIGMESH
          {
            OFFSET 0.000383861 -0.000257932 -6.47351e-005
            CHANNELS 3 Zrotation Xrotation Yrotation
            End Site
            {
              OFFSET 0 0 0
            }
          }
        }
        JOINT L_Shoulder_RIGMESH
        {
          OFFSET 3.24498e-005 -0.000608592 -0.000527677
          CHANNELS 3 Zrotation Xrotation Yrotation
          End Site
          {
            OFFSET 0 0 0
          }
        }
      }
      JOINT Character1_RightShoulder
      {
        OFFSET -1.467 27.745 1.178
        CHANNELS 3 Zrotation Xrotation Yrotation
        JOINT Character1_RightArm
        {
          OFFSET -18.486 -1.858 0.275
          CHANNELS 3 Zrotation Xrotation Yrotation
          JOINT Character1_RightForeArm
          {
            OFFSET -31.798 2.35964 2.92082
            CHANNELS 3 Zrotation Xrotation Yrotation
            JOINT Character1_RightHand
            {
              OFFSET -29.0007 1.64167 2.112
              CHANNELS 3 Zrotation Xrotation Yrotation
              End Site
              {
                OFFSET 161.773 0.141827 0.896322
              }
            }
            JOINT R_Radius_RIGMESH
            {
              OFFSET 104.095 0.21029 -0.434995
              CHANNELS 3 Zrotation Xrotation Yrotation
              End Site
              {
                OFFSET 0 0 0
              }
            }
          }
          JOINT R_Humerus_RIGMESH
          {
            OFFSET 39.9064 -0.000257932 -6.47351e-005
            CHANNELS 3 Zrotation Xrotation Yrotation
            End Site
            {
              OFFSET 0 0 0
            }
          }
        }
        JOINT R_Shoulder_RIGMESH
        {
          OFFSET -3.24498e-005 -0.000608592 -0.000527677
          CHANNELS 3 Zrotation Xrotation Yrotation
          End Site
          {
            OFFSET 0 0 0
          }
        }
      }
      JOINT Character1_Neck
      {
        OFFSET 0 30.836 0.626
        CHANNELS 3 Zrotation Xrotation Yrotation
        JOINT Character1_Head
        {
          OFFSET 0 8.074 3.498
          CHANNELS 3 Zrotation Xrotation Yrotation
          End Site
          {
            OFFSET 0 -0.00153379 1.54668e-005
          }
        }
        JOINT Neck_RIGMESH
        {
          OFFSET 0.0355146 0.000245254 1.22499
          CHANNELS 3 Zrotation Xrotation Yrotation
          End Site
          {
            OFFSET 0 0 0
          }
        }
      }
      JOINT Torso_RIGMESH
      {
        OFFSET 0 -0.000828813 -0.000380861
        CHANNELS 3 Zrotation Xrotation Yrotation
        End Site
        {
          OFFSET 0 0 0
        }
      }
    }
    JOINT Spine_RIGMESH
    {
      OFFSET -0.143182 -0.0455307 -0.219126
      CHANNELS 3 Zrotation Xrotation Yrotation
      End Site
      {
        OFFSET 0 0 0
      }
    }
  }
  JOINT Character1_RightUpLeg
  {
    OFFSET -9.035 -4.63425 1.845
    CHANNELS 3 Zrotation Xrotation Yrotation
    JOINT Character1_RightLeg
    {
      OFFSET -0.919521 -40.345 1.155
      CHANNELS 3 Zrotation Xrotation Yrotation
      JOINT Character1_RightFoot
      {
        OFFSET 1.95452 -45.2655 -4.18888
        CHANNELS 3 Zrotation Xrotation Yrotation
        JOINT Character1_RightToeBase
        {
          OFFSET 1.87056 -6.69517 14.7145
          CHANNELS 3 Zrotation Xrotation Yrotation
          End Site
          {
            OFFSET 0 0 0
          }
        }
        JOINT R_Talus_RIGMESH
        {
          OFFSET 8 -7.75529 4.18888
          CHANNELS 3 Zrotation Xrotation Yrotation
          End Site
          {
            OFFSET 0 0 0
          }
        }
      }
      JOINT R_Tibia_RIGMESH
      {
        OFFSET 0 0 0
        CHANNELS 3 Zrotation Xrotation Yrotation
        End Site
        {
          OFFSET 0 0 0
        }
      }
    }
    JOINT R_Femur_RIGMESH
    {
      OFFSET 0 0 0
      CHANNELS 3 Zrotation Xrotation Yrotation
      End Site
      {
        OFFSET 0 0 0
      }
    }
  }
  JOINT Character1_LeftUpLeg
  {
    OFFSET 9.035 -4.63425 1.845
    CHANNELS 3 Zrotation Xrotation Yrotation
    JOINT Character1_LeftLeg
    {
      OFFSET 0.919521 -40.345 1.155
      CHANNELS 3 Zrotation Xrotation Yrotation
      JOINT Character1_LeftFoot
      {
        OFFSET -1.95452 -45.2655 -4.18888
        CHANNELS 3 Zrotation Xrotation Yrotation
        JOINT Character1_LeftToeBase
        {
          OFFSET -1.87056 -6.69517 14.7145
          CHANNELS 3 Zrotation Xrotation Yrotation
          End Site
          {
            OFFSET 0 0 0
          }
        }
        JOINT L_Talus_RIGMESH
        {
          OFFSET -8 -7.75529 4.18888
          CHANNELS 3 Zrotation Xrotation Yrotation
          End Site
          {
            OFFSET 0 0 0
          }
        }
      }
      JOINT L_Tibia_RIGMESH
      {
        OFFSET 0 0 0
        CHANNELS 3 Zrotation Xrotation Yrotation
        End Site
        {
          OFFSET 0 0 0
        }
      }
    }
    JOINT L_Femur_RIGMESH
    {
      OFFSET 0 0 0
      CHANNELS 3 Zrotation Xrotation Yrotation
      End Site
      {
        OFFSET 0 0 0
      }
    }
  }
  JOINT Pelvis_RIGMESH
  {
    OFFSET 0 0 0
    CHANNELS 3 Zrotation Xrotation Yrotation
    End Site
    {
      OFFSET 0 0 0
    }
  }
}
MOTION
Frames:	7
Frame Time:	0.00833333
-36.3105 95.1557 -27.3447 -6.1152 0.262888 -5.26989 -6.21202e-018 1.98785e-016 -7.95139e-016 8.36038 7.36381 2.16885 -6.87886 1.94069 -5.41097 -64.9769 22.9997 -3.90127 0.000243844 -1.63815e-006 -24.4128 -1.95311 13.5188 2.62238 -4.77083e-015 -9.54166e-015 3.18055e-015 3.57812e-015 3.18055e-015 -0 3.97569e-016 -1.59028e-015 3.18055e-015 1.741 0.364641 9.99759 63.2455 16.2848 4.43409 8.30648e-006 5.00634e-006 24.2751 2.56505 19.6878 -3.30482 1.59028e-015 3.18055e-015 -0 5.46658e-016 -3.18055e-015 -1.49089e-015 0 0 -2.38542e-015 1.98785e-016 0 3.97569e-016 2.26354 -11.624 5.4123 -0.989859 -12.2006 1.13561 1.98785e-016 0 3.97569e-016 2.81097 2.41594 0.847523 6.40239 -14.0015 -0.513737 0.100701 19.0125 0.0691801 0.612928 -4.56192 -3.78498 0.0582502 -2.09505 -0.00170332 5.28022e-017 -8.07563e-017 -1.59028e-015 2.98177e-016 0 7.95139e-016 0 0 -1.59028e-015 16.7171 -24.8026 14.5011 -0.197179 60.8715 0.212018 -6.95742 20.2499 0.79886 1.49295 -36.4889 0.227417 3.18055e-015 9.54166e-015 -0 7.95139e-016 -3.18055e-015 -0 7.95139e-016 3.18055e-015 -0 -6.21202e-018 1.98785e-016 -7.95139e-016 
-36.3337 95.323 -26.3103 -6.09134 0.239326 -5.4965 1.44429e-015 -2.48481e-016 -0 8.19095 7.42121 2.57066 -6.98277 2.04477 -5.28317 -65.0914 23.2068 -3.53582 0.000243849 -1.64034e-006 -24.2441 -2.02963 13.7964 2.7207 1.59028e-015 3.18055e-015 -1.59028e-015 -1.98785e-016 -3.18055e-015 1.59028e-015 1.19271e-015 0 -7.95139e-016 1.53107 0.206835 10.0856 63.308 15.8583 4.65999 8.25765e-006 4.98403e-006 24.8352 2.21651 19.5993 -3.08025 3.53113e-031 3.18055e-015 -6.36111e-015 -6.16232e-015 0 -5.96354e-016 7.95139e-016 0 -2.38542e-015 -1.49089e-016 1.59028e-015 -0 2.2358 -11.6788 5.29344 -1.03829 -12.1876 1.12768 -1.49089e-016 1.59028e-015 -0 2.76137 2.43199 0.972784 6.40051 -13.0016 -0.368176 0.074856 18.4598 0.0765664 0.646315 -4.79601 -3.7283 0.0561287 -2.00846 -0.00203874 -9.31803e-017 4.96962e-017 1.59028e-015 0 7.95139e-016 -0 1.98785e-016 0 7.95139e-016 16.8542 -25.6234 14.7792 -0.186054 60.5532 0.189539 -7.09555 18.9244 0.313088 2.56246 -33.5198 0.3642 4.77083e-015 -3.18055e-015 -3.18055e-015 0 6.36111e-015 -0 1.98785e-015 3.18055e-015 -0 1.44429e-015 -2.48481e-016 -0 
-36.3506 95.4567 -25.2857 -6.09189 0.223766 -5.67471 2.39163e-016 0 -1.59028e-015 8.04361 7.49727 2.91189 -7.10874 2.14778 -5.14887 -65.1522 23.2456 -3.15897 0.000243852 -1.64158e-006 -24.1477 -2.04589 13.3888 2.77408 1.59028e-015 6.36111e-015 -0 -2.98177e-015 6.36111e-015 -3.97569e-015 -1.19271e-015 0 -1.59028e-015 1.37176 0.0693384 10.1621 63.341 15.3602 4.87706 8.20558e-006 4.9596e-006 25.4352 1.92607 19.4772 -2.87615 -6.36111e-015 -9.54166e-015 3.18055e-015 7.15625e-015 -3.18055e-015 -1.98785e-016 -1.78906e-015 1.59028e-015 2.38542e-015 -1.49089e-016 -1.59028e-015 -3.97569e-016 2.16945 -11.7885 5.18454 -1.0925 -12.1897 1.10378 -1.49089e-016 -1.59028e-015 -3.97569e-016 2.71425 2.45033 1.09262 6.38805 -11.9146 -0.342494 0.042412 17.7341 0.0792382 0.560123 -5.0614 -3.61159 0.0541436 -1.94404 -0.00232545 1.36664e-016 4.96962e-017 -0 -0 -7.95139e-016 -0 0 0 -7.95139e-016 16.9329 -26.1362 14.962 -0.160906 59.4344 0.157786 -7.24335 17.6507 -0.182644 3.51426 -32.548 0.48809 -8.82781e-032 -3.18055e-015 -1.59028e-015 -7.95139e-016 -3.18055e-015 -7.95139e-016 1.32417e-031 -3.18055e-015 2.38542e-015 2.39163e-016 0 -1.59028e-015 
-36.3675 95.5905 -24.2644 -6.09261 0.208212 -5.85292 6.21202e-018 -1.98785e-016 1.59028e-015 7.89616 7.5711 3.25362 -7.23518 2.25081 -5.01457 -65.2133 23.2835 -2.78201 0.000243855 -1.64281e-006 -24.0514 -2.06074 12.981 2.82671 1.59028e-015 0 -4.77083e-015 -3.97569e-016 -3.18055e-015 -1.59028e-015 1.98785e-016 0 -7.95139e-016 1.21283 -0.0681044 10.2386 63.3779 14.862 5.09335 8.15377e-006 4.93462e-006 26.0353 1.63631 19.3551 -2.67255 -3.18055e-015 3.18055e-015 -0 -8.94531e-016 3.18055e-015 -1.39149e-015 -9.93923e-016 0 -1.59028e-015 -0 0 7.95139e-016 2.10292 -11.8985 5.07564 -1.15429 -12.2033 1.07044 -0 0 7.95139e-016 2.66828 2.47029 1.20763 6.36755 -10.8352 -0.317879 0.0168557 17.011 0.0801397 0.529699 -5.29123 -3.49355 0.0522297 -1.87962 -0.00256078 3.72721e-016 0 -1.59028e-015 1.98785e-016 -7.95139e-016 1.59028e-015 1.98785e-016 0 -0 17.0112 -26.6502 15.1447 -0.137956 58.315 0.128533 -7.39138 16.3796 -0.683548 4.33671 -30.8905 0.591432 1.59028e-015 -9.54166e-015 -0 8.82781e-032 6.36111e-015 -7.95139e-016 -7.95139e-016 0 7.95139e-016 6.21202e-018 -1.98785e-016 1.59028e-015 
-36.3844 95.7241 -23.2466 -6.09347 0.192664 -6.03113 1.23619e-015 -7.45443e-017 1.59028e-015 7.74856 7.64271 3.59582 -7.36208 2.35389 -4.88026 -65.2753 23.3205 -2.40464 0.000243857 -1.64404e-006 -23.9551 -2.0742 12.573 2.87856 1.59028e-015 0 1.59028e-015 5.96354e-015 0 -2.38542e-015 -2.18663e-015 0 7.95139e-016 1.0543 -0.205451 10.3152 63.4184 14.3639 5.30908 8.10223e-006 4.90911e-006 26.6353 1.34728 19.2328 -2.46937 3.18055e-015 0 -0 -2.18663e-015 3.18055e-015 1.19271e-015 7.95139e-016 -7.95139e-016 1.59028e-015 -4.96962e-017 0 -3.97569e-016 2.03637 -12.0087 4.96674 -1.21899 -12.2256 1.03723 -4.96962e-017 0 -3.97569e-016 2.62514 2.49104 1.31783 6.3392 -9.7658 -0.294006 -0.001752 16.2947 0.0787908 0.554397 -5.48678 -3.37378 0.050434 -1.8152 -0.00274206 2.60905e-016 9.93923e-017 -3.18055e-015 -9.93923e-017 -7.95139e-016 -0 -3.97569e-016 0 -0 17.0892 -27.1654 15.3272 -0.117939 57.1948 0.101673 -7.53986 15.1113 -1.18959 5.04369 -28.5779 0.67596 -1.59028e-015 -3.18055e-015 -0 -7.95139e-016 3.18055e-015 -7.95139e-016 -7.95139e-016 6.36111e-015 -7.95139e-016 1.23619e-015 -7.45443e-017 1.59028e-015 
-36.4013 95.8576 -22.2319 -6.09449 0.177123 -6.20935 2.81094e-015 0 -0 7.60085 7.71203 3.93849 -7.48939 2.45703 -4.74592 -65.3376 23.3566 -2.02716 0.00024386 -1.64527e-006 -23.8589 -2.08625 12.1647 2.92971 -1.59028e-015 0 1.59028e-015 -4.37326e-015 0 -2.38542e-015 -3.97569e-016 1.59028e-015 -7.95139e-016 0.896218 -0.342687 10.3918 63.463 13.8658 5.52401 8.05095e-006 4.88305e-006 27.2354 1.05896 19.1105 -2.26671 -3.18055e-015 3.18055e-015 3.18055e-015 -5.76476e-015 9.54166e-015 -7.95139e-016 -5.96354e-016 1.59028e-015 -3.18055e-015 -1.49089e-016 0 -1.19271e-015 1.96976 -12.1188 4.85783 -1.28193 -12.2541 1.01371 -1.49089e-016 0 -1.19271e-015 2.5865 2.51174 1.42323 6.30317 -8.70792 -0.270638 -0.013581 15.5882 0.0747154 0.634396 -5.64939 -3.25198 0.0483711 -1.75078 -0.00286665 -2.36057e-016 9.93923e-017 3.18055e-015 1.10348e-032 7.95139e-016 -7.95139e-016 -1.98785e-016 1.59028e-015 -7.95139e-016 17.1669 -27.6816 15.5094 -0.0981262 56.0735 0.0770803 -7.68888 13.8458 -1.70072 5.6478 -25.6266 0.744158 2.38542e-015 -3.18055e-015 -0 -0 0 7.95139e-016 -7.95139e-016 -3.18055e-015 7.95139e-016 2.81094e-015 0 -0 
-36.4092 95.9427 -21.2264 -6.13611 0.185403 -6.34022 2.42269e-016 2.48481e-017 -0 7.50289 7.78625 4.22063 -7.66342 2.565 -4.60054 -65.3066 23.2177 -1.69487 0.000243861 -1.64563e-006 -23.8303 -2.12936 11.618 2.91594 0 3.18055e-015 -0 -3.97569e-015 3.18055e-015 -2.38542e-015 5.96354e-016 -1.59028e-015 1.59028e-015 0.815378 -0.442845 10.4532 63.4144 13.3895 5.75031 7.99948e-006 4.85622e-006 27.8409 0.735675 18.9209 -2.05025 0 0 -6.36111e-015 3.97569e-015 0 2.78299e-015 -5.96354e-016 0 1.59028e-015 1.98785e-016 0 1.19271e-015 1.91461 -12.304 4.76042 -1.34212 -12.2897 1.00266 1.98785e-016 0 1.19271e-015 2.55172 2.53253 1.52377 6.30403 -7.61846 -0.279538 -0.0257575 14.7776 0.0639571 0.557544 -5.84734 -3.1691 0.046197 -1.66747 -0.00293188 -2.48481e-017 1.98785e-016 1.59028e-015 9.93923e-017 -7.95139e-016 7.95139e-016 -0 0 1.59028e-015 17.1802 -27.8688 15.5421 -0.0702702 54.158 0.0510974 -7.95835 12.7242 -2.00623 6.1101 -24.4562 0.795814 1.59028e-015 -1.27222e-014 -1.59028e-015 -1.32417e-031 3.18055e-015 2.38542e-015 2.64834e-031 -6.36111e-015 2.38542e-015 2.42269e-016 2.48481e-017 -0 
